<?xml version="1.0" ?><svg data-name="Layer 2" id="Layer_2" viewBox="0 0 2010 2010" xmlns="http://www.w3.org/2000/svg" xmlns:xlink="http://www.w3.org/1999/xlink"><defs><style>.cls-1{fill:url(#linear-gradient);}.cls-2{fill:url(#linear-gradient-2);}</style><linearGradient gradientUnits="userSpaceOnUse" id="linear-gradient" x1="1643.94" x2="734.59" y1="116.26" y2="2007.43"><stop offset="0" stop-color="#69bbff"/><stop offset="1" stop-color="#1798ff"/></linearGradient><linearGradient id="linear-gradient-2" x1="390.54" x2="666.33" xlink:href="#linear-gradient" y1="476.61" y2="476.61"/></defs><path class="cls-1" d="M1259.34,1680.79q-12,0-24-.44a620,620,0,0,1-159-26.79,604.51,604.51,0,0,1-142.77-65.27C842,1531,766,1448.78,713.77,1350.61a687.62,687.62,0,0,1-60.63-160,761,761,0,0,1-21.2-180,785.69,785.69,0,0,1,21-181.94A707.34,707.34,0,0,1,713,666.49c52-100.11,127.92-183.94,219.44-242.43a599.44,599.44,0,0,1,139.79-65.72A613.31,613.31,0,0,1,1228.38,330c111.94-5.67,225.74,17.86,338.25,69.93a75,75,0,1,1-63,136.13c-90.21-41.75-180.27-60.68-267.66-56.25-80.9,4.1-155.84,27.86-222.74,70.61C943.83,594.81,886,658.86,846.1,735.68a557.35,557.35,0,0,0-47.28,127.81,635.28,635.28,0,0,0-16.88,147.15,610.65,610.65,0,0,0,16.93,144.47,537.53,537.53,0,0,0,47.33,125.05c39.9,75,97.64,137.59,167,181a454,454,0,0,0,107.3,49A469.9,469.9,0,0,0,1241,1530.45c89.14,3.35,180.21-17.25,270.67-61.21a75,75,0,1,1,65.56,134.91c-56.67,27.55-114.83,48-172.86,60.69A677.68,677.68,0,0,1,1259.34,1680.79Z"/><circle class="cls-2" cx="528.44" cy="476.61" r="137.89"/></svg>